<svg xmlns="http://www.w3.org/2000/svg" version="1.1" xmlns:xlink="http://www.w3.org/1999/xlink" xmlns:svgjs="http://svgjs.com/svgjs" width="512" height="512" x="0" y="0" viewBox="0 0 48 48" style="enable-background:new 0 0 512 512" xml:space="preserve" class=""><g><g xmlns="http://www.w3.org/2000/svg" id="_13-espresso" data-name="13-espresso"><path d="m1 41a3 3 0 0 0 3 3h2a3 3 0 0 0 3 3h30a3 3 0 0 0 3-3h2a3 3 0 0 0 3-3z" fill="#cfcecc" data-original="#cfcecc" class=""></path><path d="m19 38a15.005 15.005 0 0 0 15-15v-3h-30v3a15.005 15.005 0 0 0 15 15zm18-19v4a18 18 0 0 1 -36 0v-10h36z" fill="#ebeae8" data-original="#ebeae8" class=""></path><path d="m34 20v3a15 15 0 0 1 -30 0v-3z" fill="#463325" data-original="#463325" class=""></path><path d="m9 47h30a3 3 0 0 0 3-3h-36a3 3 0 0 0 3 3z" fill="#cfcecc" data-original="#cfcecc" class=""></path><path d="m1 41a3 3 0 0 0 3 3h40a3 3 0 0 0 3-3z" fill="#c4c3c2" data-original="#c4c3c2"></path><g fill="#dfd4c3"><path d="m18 12a1 1 0 0 1 -1-1 3.049 3.049 0 0 1 1.362-2.439c.51-.424.638-.573.638-.891 0-.339-.157-.5-.641-.9a3.051 3.051 0 0 1 -1.359-2.44 3.036 3.036 0 0 1 1.358-2.43c.485-.4.642-.563.642-.9a1 1 0 0 1 2 0 3.049 3.049 0 0 1 -1.362 2.439c-.51.424-.638.573-.638.891 0 .339.157.5.641.9a3.051 3.051 0 0 1 1.359 2.44 3.036 3.036 0 0 1 -1.358 2.43c-.485.4-.642.563-.642.9a1 1 0 0 1 -1 1z" fill="#dfd4c3" data-original="#dfd4c3" class=""></path><path d="m24 12a1 1 0 0 1 -1-1 3.049 3.049 0 0 1 1.362-2.439c.51-.424.638-.573.638-.891 0-.339-.157-.5-.641-.9a3.051 3.051 0 0 1 -1.359-2.44 3.036 3.036 0 0 1 1.358-2.43c.485-.4.642-.563.642-.9a1 1 0 0 1 2 0 3.049 3.049 0 0 1 -1.362 2.439c-.51.424-.638.573-.638.891 0 .339.157.5.641.9a3.051 3.051 0 0 1 1.359 2.44 3.036 3.036 0 0 1 -1.358 2.43c-.485.4-.642.563-.642.9a1 1 0 0 1 -1 1z" fill="#dfd4c3" data-original="#dfd4c3" class=""></path><path d="m12 12a1 1 0 0 1 -1-1 3.049 3.049 0 0 1 1.362-2.439c.51-.424.638-.573.638-.891 0-.339-.157-.5-.641-.9a3.051 3.051 0 0 1 -1.359-2.44 3.036 3.036 0 0 1 1.358-2.43c.485-.4.642-.563.642-.9a1 1 0 0 1 2 0 3.049 3.049 0 0 1 -1.362 2.439c-.51.424-.638.573-.638.891 0 .339.157.5.641.9a3.051 3.051 0 0 1 1.359 2.44 3.036 3.036 0 0 1 -1.358 2.43c-.485.4-.642.563-.642.9a1 1 0 0 1 -1 1z" fill="#dfd4c3" data-original="#dfd4c3" class=""></path></g><path d="m41.2 18h-4.2v2h4.2a4.805 4.805 0 0 1 4.8 4.8 8.743 8.743 0 0 1 -2.1 5.4 11.2 11.2 0 0 1 -4.985 3.523 5.95 5.95 0 0 1 -3.65-.021l-1.465-.489c-.2.286-.4.573-.61.847s-.433.539-.661.8a.987.987 0 0 0 .172.094l1.934.646a7.85 7.85 0 0 0 2.475.4 7.626 7.626 0 0 0 2.453-.384 13.216 13.216 0 0 0 5.894-4.156 10.737 10.737 0 0 0 2.543-6.66 6.807 6.807 0 0 0 -6.8-6.8z" fill="#ebeae8" data-original="#ebeae8" class=""></path><path d="m37 18v1 1h3v-2z" fill="#dad9d7" data-original="#dad9d7" class=""></path><path d="m36 34.5a1.492 1.492 0 0 1 .122-.592 5.668 5.668 0 0 1 -.853-.206l-1.469-.489c-.2.286-.4.573-.61.847s-.433.539-.661.8a.987.987 0 0 0 .172.094l1.934.646a7.85 7.85 0 0 0 2.475.4c.077 0 .147-.015.223-.017a1.5 1.5 0 0 1 -1.333-1.483z" fill="#dad9d7" data-original="#dad9d7" class=""></path><path d="m9 45h30a2.982 2.982 0 0 1 2.224 1 2.981 2.981 0 0 0 .776-2h-36a2.981 2.981 0 0 0 .776 2 2.982 2.982 0 0 1 2.224-1z" fill="#adaba8" data-original="#adaba8" class=""></path><path d="m6 43h38a2.983 2.983 0 0 1 1.657.5 2.991 2.991 0 0 0 1.343-2.5h-46a2.991 2.991 0 0 0 1.343 2.5 2.983 2.983 0 0 1 1.657-.5z" fill="#ebeae8" data-original="#ebeae8" class=""></path><path d="m30 13v19a9.075 9.075 0 0 1 -.09 1.28 8.958 8.958 0 0 1 -4.39 6.49 17.664 17.664 0 0 1 -6.52 1.23 3.994 3.994 0 0 0 3.97-3.53v-.01a3.44 3.44 0 0 0 .03-.46v-24z" fill="#ffffff" data-original="#ffffff" class=""></path><path d="m30 20v12a9.075 9.075 0 0 1 -.09 1.28 14.876 14.876 0 0 1 -6.94 4.18 3.44 3.44 0 0 0 .03-.46v-17z" fill="#5c4534" data-original="#5c4534" class=""></path><path d="m14.5 40.43a18 18 0 0 1 -13.5-17.43v-10h6v17a10.877 10.877 0 0 0 .24 2.3 10.989 10.989 0 0 0 7.26 8.13z" fill="#d4d3d1" data-original="#d4d3d1" class=""></path><path d="m7.24 32.3a14.893 14.893 0 0 1 -3.24-9.3v-3h3v10a10.877 10.877 0 0 0 .24 2.3z" fill="#28100c" data-original="#28100c"></path><path d="m29.819 27a.942.942 0 0 1 -.182-.017 1 1 0 0 1 -.8-1.165c.055-.3.1-.6.124-.907a1 1 0 0 1 1.992.178q-.05.553-.149 1.093a1 1 0 0 1 -.985.818z" fill="#ffffff" data-original="#ffffff" class=""></path><path d="m19 36a1 1 0 0 1 0-2 9.965 9.965 0 0 0 8.91-5.455 1 1 0 1 1 1.781.91 11.958 11.958 0 0 1 -10.691 6.545z" fill="#ffffff" data-original="#ffffff" class=""></path><path d="m34 35a7.9 7.9 0 0 1 -.1 1.21c-.47 2.73-2.48 4.79-4.9 4.79a.51.51 0 0 1 -.09-.01c-.25-.06-.91-.37-.91-1.99 0-2 2-2 2-4s-2-2-2-4c0-1.62.66-1.93.91-1.99a.51.51 0 0 1 .09-.01 4.143 4.143 0 0 1 1.49.27 5.989 5.989 0 0 1 3.51 5.73z" fill="#785745" data-original="#785745"></path><path d="m28 31c0 2 2 2 2 4s-2 2-2 4c0 1.62.66 1.93.91 1.99a5.227 5.227 0 0 1 -4.69-4.2 7.5 7.5 0 0 1 -.22-1.79c0-3.27 2.19-5.94 4.91-5.99-.25.06-.91.37-.91 1.99z" fill="#5c4534" data-original="#5c4534" class=""></path><path d="m29 38a4.987 4.987 0 0 1 -.737-.074 2.208 2.208 0 0 0 -.263 1.074c0 1.62.66 1.93.91 1.99a.51.51 0 0 0 .09.01c2.76 0 5-2.69 5-6a7.245 7.245 0 0 0 -.089-1.112 5 5 0 0 1 -4.911 4.112z" fill="#6b4d3d" data-original="#6b4d3d"></path><path d="m28 39a2.208 2.208 0 0 1 .263-1.074c.537-1.016 1.737-1.372 1.737-2.926 0-2-2-2-2-4 0-1.62.66-1.93.91-1.99a4.434 4.434 0 0 0 -2.824 1.124 4.068 4.068 0 0 0 -.086.866c0 2 2 2 2 4v.037a1.678 1.678 0 0 1 -3.033.891 4.907 4.907 0 0 1 -.878-2.042 7.261 7.261 0 0 0 -.089 1.114 6.418 6.418 0 0 0 2.086 4.866 4.434 4.434 0 0 0 2.824 1.124c-.25-.06-.91-.37-.91-1.99z" fill="#4b382e" data-original="#4b382e"></path><path d="m33.482 34.659a5.966 5.966 0 0 0 -1.128-3.492.457.457 0 0 0 -.7 0 .634.634 0 0 0 -.006.807 4.835 4.835 0 0 1 .852 3.026 6.215 6.215 0 0 1 -.173 1.481 4.064 4.064 0 0 1 -.681 1.544.631.631 0 0 0 0 .808.459.459 0 0 0 .708 0 6.019 6.019 0 0 0 1.146-3.833c0-.121-.013-.226-.018-.341z" fill="#ad836d" data-original="#ad836d"></path><path d="m31.646 38.833a.459.459 0 0 0 .708 0 6.011 6.011 0 0 0 1.139-3.7 5 5 0 0 1 -1.271 1.686 4.127 4.127 0 0 1 -.576 1.208.631.631 0 0 0 0 .806z" fill="#8f6c5a" data-original="#8f6c5a"></path><path d="m23.96 37.15a10.372 10.372 0 0 1 -.99.31 13.077 13.077 0 0 1 -2.34.45 5.4 5.4 0 0 0 2.45 2.62 17.327 17.327 0 0 0 2.78-.89 5.991 5.991 0 0 1 -1.56-2.6c-.12.04-.23.08-.34.11z" fill="#9e9d9b" data-original="#9e9d9b"></path><path d="m26.99 29.51a3.274 3.274 0 0 0 -.5-.24 4.143 4.143 0 0 0 -1.49-.27.51.51 0 0 0 -.09.01 4.177 4.177 0 0 0 -1.91.5 6.117 6.117 0 0 0 -3 5.49 7.5 7.5 0 0 0 .22 1.79 5.98 5.98 0 0 0 .41 1.12 13.077 13.077 0 0 0 2.34-.45 10.372 10.372 0 0 0 .99-.31c.11-.03.22-.07.34-.11a.035.035 0 0 1 -.01-.02 1.546 1.546 0 0 1 -.07-.23 7.5 7.5 0 0 1 -.22-1.79 6.141 6.141 0 0 1 2.99-5.49z" fill="#28100c" data-original="#28100c"></path><path d="m42.84 32.16c1.771 1.77 1.481 4.92-.64 7.04a5.907 5.907 0 0 1 -4.1 1.8 4.1 4.1 0 0 1 -2.942-1.16.124.124 0 0 1 -.02-.03c-.11-.14-.46-.77.661-1.89 1.28-1.28 2.561 0 3.841-1.28s0-2.56 1.281-3.84c1.121-1.12 1.751-.77 1.891-.66a.124.124 0 0 1 .028.02z" fill="#785745" data-original="#785745"></path><path d="m35.8 32.8c2.111-2.11 5.242-2.41 7.013-.66-.14-.11-.77-.46-1.891.66-1.281 1.28 0 2.56-1.281 3.84s-2.561 0-3.841 1.28c-1.121 1.12-.771 1.75-.661 1.89a4.2 4.2 0 0 1 -1.09-3.58 6.034 6.034 0 0 1 1.751-3.43z" fill="#5c4534" data-original="#5c4534" class=""></path><path d="m37.239 37.29a2.059 2.059 0 0 0 -1.442.63c-1.121 1.12-.771 1.75-.661 1.89a.124.124 0 0 0 .02.03 4.1 4.1 0 0 0 2.944 1.16 5.907 5.907 0 0 0 4.1-1.8c.062-.062.107-.133.166-.2a4.7 4.7 0 0 1 -5.127-1.71z" fill="#6b4d3d" data-original="#6b4d3d"></path><path d="m41.546 31.33a1.341 1.341 0 0 0 -1.34.206c-.091.076-.187.164-.287.264-1.281 1.28 0 2.56-1.281 3.84l-.019.019a1.372 1.372 0 0 1 -2.293-.894 4.683 4.683 0 0 1 .855-3 6.355 6.355 0 0 0 -1.381 1.035 6.034 6.034 0 0 0 -1.751 3.43 4.724 4.724 0 0 0 .075 1.622 3.888 3.888 0 0 0 1.015 1.958c-.11-.14-.46-.77.661-1.89a2.059 2.059 0 0 1 1.442-.63c.8-.05 1.6.149 2.4-.65 1.281-1.28 0-2.56 1.281-3.84 1.12-1.12 1.751-.77 1.891-.66a3.683 3.683 0 0 0 -1.268-.81z" fill="#4b382e" data-original="#4b382e"></path><path d="m42.92 34.633a1.079 1.079 0 0 0 -.349-.576.4.4 0 0 0 -.519.117.809.809 0 0 0 -.178.477c-.014.171 0 .343.007.514a2.819 2.819 0 0 1 -.312 1.314c-.13.252-.266.5-.387.753-.074.155-.239.489-.162.661.066.148.331.106.457.084a.951.951 0 0 0 .51-.283 3.169 3.169 0 0 0 .728-1.159 2.963 2.963 0 0 0 .205-1.902z" fill="#ad836d" data-original="#ad836d"></path></g></g></svg>
