<svg xmlns="http://www.w3.org/2000/svg" version="1.1" xmlns:xlink="http://www.w3.org/1999/xlink" xmlns:svgjs="http://svgjs.com/svgjs" width="512" height="512" x="0" y="0" viewBox="0 0 512 512" style="enable-background:new 0 0 512 512" xml:space="preserve" class=""><g><g xmlns="http://www.w3.org/2000/svg"><g><ellipse cx="145.793" cy="243.059" fill="#986b54" rx="145.793" ry="206.54" data-original="#986b54" class=""></ellipse><path d="m44.642 391.789c26.216 35.791 61.866 57.81 101.15 57.81 80.519 0 145.793-92.471 145.793-206.54 0-81.034-32.947-151.156-80.894-184.982 14.273 19.486 25.744 43.06 33.484 69.387 2.224 7.566-.368 15.718-6.565 20.596-9.794 7.708-19.208 16.039-28.1 24.931-43.23 43.23-72.065 96.192-81.192 149.129-4.157 24.111-4.08 47.043.031 68.088 2.315 11.853-6.484 23.11-18.561 23.139-.082 0-.165 0-.248 0-23.317 0-45.352-7.768-64.898-21.558z" fill="#845c47" data-original="#845c47" class=""></path><path d="m157.914 386.84c-4.912-23.077-9.167-47.112-15.458-69.637-5.96-21.926-13.258-42.854-22.105-63.397-21.236-49.101-24.937-107.918-.341-156.317 1.586-2.968 5.338-4.119 8.38-2.572 6.385 4.932 6.949 27.188 10.075 35.918 7.661 35.026 18.132 69.255 32.77 101.515 11.089 24.777 17.668 51.739 18.364 78.716.607 26.789-3.883 53.841-15.955 77.878-2.083 4.036-7.125 5.66-11.262 3.628-2.415-1.187-3.944-3.318-4.468-5.732z" fill="#664545" data-original="#664545" class=""></path><path d="m162.383 392.572c4.137 2.032 9.179.408 11.262-3.628 12.072-24.038 16.562-51.089 15.955-77.878-.697-26.977-7.275-53.939-18.364-78.716-1.192-2.628-2.347-5.273-3.485-7.926-14.271 21.987-25.26 45.201-32.49 68.769 2.589 7.887 4.985 15.88 7.195 24.01 6.291 22.525 10.546 46.56 15.458 69.637.524 2.414 2.053 4.545 4.469 5.732z" fill="#523838" data-original="#523838" class=""></path></g><g><ellipse cx="333.22" cy="296.701" fill="#986b54" rx="206.54" ry="145.793" transform="matrix(.707 -.707 .707 .707 -112.201 322.524)" data-original="#986b54" class=""></ellipse><path d="m509.912 211.789c-7.107 46.024-32.295 95.428-73.601 136.735-80.659 80.659-192.201 99.89-249.137 42.955-16.489-16.489-26.576-37.562-30.647-61.134-6.771 43.846 2.869 84.624 30.647 112.402 56.936 56.936 168.478 37.704 249.137-42.955 57.3-57.3 83.586-130.181 73.601-188.003z" fill="#845c47" data-original="#845c47" class=""></path><path d="m240.122 406.94c12.844-19.791 26.831-39.795 38.31-60.171 11.29-19.718 20.927-39.677 29.197-60.459 19.703-49.736 58.676-93.942 110.292-110.774 3.22-.977 6.687.862 7.744 4.107 1.027 8.002-14.311 24.138-18.274 32.522-19.35 30.184-36.149 61.793-48.61 94.954-9.679 25.361-24.092 49.078-42.675 68.646-18.514 19.372-40.817 35.325-66.35 43.786-4.327 1.381-9.04-1.036-10.528-5.398-.868-2.548-.442-5.135.894-7.213z" fill="#523838" data-original="#523838" class=""></path></g></g></g></svg>