<svg xmlns="http://www.w3.org/2000/svg" version="1.1" xmlns:xlink="http://www.w3.org/1999/xlink" xmlns:svgjs="http://svgjs.com/svgjs" width="512" height="512" x="0" y="0" viewBox="0 0 60 60" style="enable-background:new 0 0 512 512" xml:space="preserve" class=""><g><g xmlns="http://www.w3.org/2000/svg" id="Page-1" fill="none" fill-rule="evenodd"><g id="043---Best-Beans" fill-rule="nonzero" transform="translate(0 -1)"><path id="Shape" d="m24 46.28v2.86h-9.68l-7.23-7.23c-.82544969-.8176978-1.49325347-1.78042-1.97-2.84l-3.92-8.62c-.1326608-.2849735-.20094415-.5956627-.2-.91.00446629-1.0366142.73511357-1.9281024 1.75066618-2.1360489 1.01555262-.2079465 2.03779152.3246175 2.44933382 1.2760489l2.24 5.22c.14978119.3562211.32006626.7034691.51 1.04l.32-.32c1.30970649-1.3198991 3.4110331-1.4197555 4.84-.23 1.7839076 1.6194912 3.8295872 2.9246685 6.05 3.86 1.141637.4090145 2.139083 1.1423285 2.87 2.11 1.3054712 1.694715 1.9997163 3.7809743 1.97 5.92z" fill="#ffe0b2" data-original="#ffe0b2" class=""></path><path id="Shape" d="m22.03 40.36c-.730917-.9676715-1.728363-1.7009855-2.87-2.11-2.2204128-.9353315-4.2660924-2.2405088-6.05-3.86-1.0646126-.8859474-2.545164-1.0772502-3.8-.491.28710915.1277536.55609903.2928461.8.491 1.7839076 1.6194912 3.8295872 2.9246685 6.05 3.86 1.141637.4090145 2.139083 1.1423285 2.87 2.11 1.3054712 1.694715 1.9997163 3.7809743 1.97 5.92v2.86h3v-2.86c.0297163-2.1390257-.6645288-4.225285-1.97-5.92z" fill="#dfc49c" data-original="#dfc49c" class=""></path><path id="Shape" d="m26 50.14v8c0 .5522847-.4477153 1-1 1h-11c-.5522847 0-1-.4477153-1-1v-8c0-.5522847.4477153-1 1-1h11c.5522847 0 1 .4477153 1 1z" fill="#912d2d" data-original="#f44335" class=""></path><path id="Shape" d="m25 49.14h-3c.5522847 0 1 .4477153 1 1v8c0 .5522847-.4477153 1-1 1h3c.5522847 0 1-.4477153 1-1v-8c0-.5522847-.4477153-1-1-1z" fill="#c81e1e" data-original="#c81e1e" class=""></path><path id="Shape" d="m59 29.54c.0009441.3143373-.0673392.6250265-.2.91l-3.92 8.62c-.4767465 1.05958-1.1445503 2.0223022-1.97 2.84l-7.23 7.23h-9.68v-2.86c-.0297163-2.1390257.6645288-4.225285 1.97-5.92.730917-.9676715 1.728363-1.7009855 2.87-2.11 2.2204128-.9353315 4.2660924-2.2405088 6.05-3.86 1.4289669-1.1897555 3.5302935-1.0898991 4.84.23l.32.32c.1899337-.3365309.3602188-.6837789.51-1.04l2.24-5.22c.4115423-.9514314 1.4337812-1.4839954 2.4493338-1.2760489s1.7461999 1.0994347 1.7506662 2.1360489z" fill="#ffe0b2" data-original="#ffe0b2" class=""></path><path id="Shape" d="m56.81 27.36c-.5564309.0051506-1.0897041.2234705-1.49.61.4304628.4092775.675939.9760389.68 1.57.0009441.3143373-.0673392.6250265-.2.91l-3.92 8.62c-.4767465 1.05958-1.1445503 2.0223022-1.97 2.84l-7.23 7.23h3l7.23-7.23c.8254497-.8176978 1.4932535-1.78042 1.97-2.84l3.92-8.62c.1326608-.2849735.2009441-.5956627.2-.91-.0038599-1.2062839-.983711-2.1816609-2.19-2.18z" fill="#dfc49c" data-original="#dfc49c" class=""></path><path id="Shape" d="m47 50.14v8c0 .5522847-.4477153 1-1 1h-11c-.5522847 0-1-.4477153-1-1v-8c0-.5522847.4477153-1 1-1h11c.5522847 0 1 .4477153 1 1z" fill="#912d2d" data-original="#f44335" class=""></path><path id="Shape" d="m46 49.14h-3c.5522847 0 1 .4477153 1 1v8c0 .5522847-.4477153 1-1 1h3c.5522847 0 1-.4477153 1-1v-8c0-.5522847-.4477153-1-1-1z" fill="#c81e1e" data-original="#c81e1e" class=""></path><path id="Shape" d="m31.78 24.07c-2.47-2.34-4.33-.56-6.8-3.02-2.51-2.5-.63-4.38-3.14-6.88-2.46-2.46-4.33-.68-6.79-3.02h-.01c.2426468-.3783144.5241767-.7302268.84-1.05 2.79-2.77 7.79-2.4 11.78.66.4892087.3762038.9535156.783725 1.39 1.22 3.74 3.71 4.8 8.82 2.73 12.09z" fill="#783e22" data-original="#783e22" class=""></path><path id="Shape" d="m31.78 24.07c-.1935553.3029121-.4144803.5874367-.66.85-.0543644.071531-.114571.1384272-.18.2-3.12 3.1-9.02 2.27-13.17-1.88-3.74-3.71-4.79-8.82-2.73-12.09h.01c2.46 2.34 4.33.56 6.79 3.02 2.51 2.5.63 4.38 3.14 6.88 2.47 2.46 4.33.68 6.8 3.02z" fill="#a0522d" data-original="#a0522d" class=""></path><path id="Shape" d="m46 14.5c.01 7.58-5.07 13.58-10.96 12.32.1-4 3.14-4.06 3.14-8.15 0-4.17-3.14-4.17-3.14-8.34 0-4.09 3.04-4.15 3.14-8.15 4.44.99 7.83 6.14 7.82 12.32z" fill="#6d4122" data-original="#6d4122" class=""></path><path id="Shape" d="m35.04 10.33c0 4.17 3.14 4.17 3.14 8.34 0 4.09-3.04 4.15-3.14 8.15-1.4359532-.3218486-2.7777445-.9722066-3.92-1.9.2455197-.2625633.4664447-.5470879.66-.85 2.07-3.27 1.01-8.38-2.73-12.09-.4364844-.436275-.9007913-.8437962-1.39-1.22 1.18-5.09 4.74-8.75 8.95-8.76.5282201.00440979 1.0544881.06474625 1.57.18-.1 4-3.14 4.06-3.14 8.15z" fill="#91562d" data-original="#91562d" class=""></path><g fill="#000"><path id="Shape" d="m24 50.144h-9.683c-.2651948-.0000566-.5195073-.1054506-.707-.293l-7.231-7.232c-.9070316-.9045726-1.64258813-1.9660644-2.171-3.133l-3.919-8.622c-.45997949-1.0419651-.32913629-2.2501767.34324224-3.1695132.67237852-.9193364 1.78414206-1.4101286 2.91650005-1.2875 1.13235798.1226287 2.11327828.8400481 2.57325771 1.8820132l2.163 5.049c1.68731461-1.1153243 3.9051982-.9976324 5.465.29 1.682397 1.544861 3.6192652 2.7871632 5.725 3.672 1.3246995.4677195 2.4836309 1.3127591 3.334 2.431 1.4496162 1.873345 2.2219152 4.1824872 2.191 6.551v2.862c0 .5522847-.4477153 1-1 1zm-9.269-2h8.269v-1.862c.030262-1.9138319-.5875315-3.7816616-1.753-5.3-.6115564-.8149964-1.4472596-1.434216-2.405-1.782-2.3504699-.9560704-4.5111165-2.3245928-6.38-4.041-.9339944-.7720694-2.2775072-.7965422-3.239-.059.3601552.5397145.7731958 1.042197 1.233 1.5l4.568 4.569c.2599566.2510745.3642126.6228779.2726972.9725073-.0915155.3496295-.3645604.6226744-.7141899.7141899-.3496294.0915154-.7214328-.0127406-.9725073-.2726972l-4.568-4.563c-1.07066967-1.0674368-1.92678568-2.3302249-2.522-3.72l-2.237-5.224c-.18700732-.4369945-.6166729-.7202905-1.092-.72-.40390399.0003006-.78003449.2056257-.99873466.5451971s-.25005848.7669462-.08326534 1.1348029l3.919 8.622c.43011917.9466497 1.0277152 1.8078114 1.764 2.542z" fill="#000000" data-original="#000000" class=""></path><path id="Shape" d="m25 60.144h-11c-1.1045695 0-2-.8954305-2-2v-8c0-1.1045695.8954305-2 2-2h11c1.1045695 0 2 .8954305 2 2v8c0 1.1045695-.8954305 2-2 2zm-11-10v8h11v-8z" fill="#000000" data-original="#000000" class=""></path><path id="Shape" d="m23 55.144h-1c-.5522847 0-1-.4477153-1-1s.4477153-1 1-1h1c.5522847 0 1 .4477153 1 1s-.4477153 1-1 1z" fill="#000000" data-original="#000000" class=""></path><path id="Shape" d="m45.683 50.144h-9.683c-.5522847 0-1-.4477153-1-1v-2.862c-.0304818-2.3683026.74217-4.6770933 2.192-6.55.8502411-1.1177145 2.0087912-1.962382 3.333-2.43 2.1058796-.8854423 4.042757-2.128427 5.725-3.674 1.5600729-1.290167 3.7792133-1.4118527 5.471-.3l2.158-5.035c.4479714-1.0604535 1.4328616-1.797026 2.5766875-1.9270345 1.1438259-.1300084 2.2688971.3667436 2.9434316 1.2996119.6745345.9328682.7937451 2.1569338.3118809 3.2024226l-3.919 8.622c-.5286734 1.1670838-1.264192 2.2288595-2.171 3.134l-7.231 7.227c-.1874927.1875494-.4418052.2929434-.707.293zm-8.683-2h8.269l6.938-6.939c.7371036-.7356251 1.3350634-1.5985167 1.765-2.547l3.919-8.622c.1667931-.3678567.1354348-.7952315-.0832653-1.1348029-.2187002-.3395714-.5948307-.5448965-.9987347-.5451971-.4753271-.0002905-.9049927.2830055-1.092.72l-2.237 5.224c-.594657 1.3915562-1.450802 2.6560844-2.522 3.725l-4.568 4.563c-.3923789.3789722-1.0160848.3735524-1.4018186-.0121814s-.3911536-1.0094397-.0121814-1.4018186l4.568-4.574c.4617316-.4576655.8767763-.960141 1.239-1.5-.9631174-.7401698-2.3103808-.7148438-3.245.061-1.8688835 1.7164072-4.0295301 3.0849296-6.38 4.041-.9561233.3487498-1.7900486.9682868-2.4 1.783-1.1666126 1.5168754-1.7861519 3.383599-1.758 5.297z" fill="#000000" data-original="#000000" class=""></path><path id="Shape" d="m46 60.144h-11c-1.1045695 0-2-.8954305-2-2v-8c0-1.1045695.8954305-2 2-2h11c1.1045695 0 2 .8954305 2 2v8c0 1.1045695-.8954305 2-2 2zm-11-10v8h11v-8z" fill="#000000" data-original="#000000" class=""></path><path id="Shape" d="m38 55.144h-1c-.5522847 0-1-.4477153-1-1s.4477153-1 1-1h1c.5522847 0 1 .4477153 1 1s-.4477153 1-1 1z" fill="#000000" data-original="#000000" class=""></path><path id="Shape" d="m15.173 9.394c-1.4525885 1.4955115-2.2366605 3.5161298-2.173 5.6.1279344 3.400991 1.5875384 6.615424 4.064 8.95 2.3580872 2.4685161 5.5882333 3.9166983 9 4.035 2.0755417.0573078 4.0878596-.7175192 5.589-2.152 1.4522232-1.4956761 2.2359266-3.5162743 2.172-5.6-.128095-3.4002499-1.5868708-6.6140817-4.062-8.949-4.53-4.53-11.073-5.378-14.59-1.884zm3.3 13.134c-2.0866162-1.970233-3.3309785-4.6707106-3.473-7.537-.0087693-.7867861.1247085-1.5686819.394-2.308.873308.5173915 1.8524797.8302204 2.864.915 2.2458937.1173053 4.0418355 1.9093654 4.164 4.155.2496496 3.1257854 2.7347511 5.6062228 5.861 5.85.737582.0493442 1.454144.266536 2.095.635-.05.054-.087.12-.139.172-2.734 2.716-8.011 1.871-11.762-1.882zm13.346-2.3c.0090896.786725-.1240491 1.568619-.393 2.308-.8735208-.5177261-1.8530953-.8305745-2.865-.915-2.2440012-.1186911-4.0379906-1.9092314-4.161-4.153-.249583-3.1254373-2.734141-5.6057555-5.86-5.85-.7373389-.0496962-1.4535706-.2672336-2.094-.636.05-.054.086-.119.138-.171 1.1264093-1.07020135 2.6351141-1.64371091 4.188-1.592 2.8801616.13224932 5.596416 1.3777968 7.576 3.474 2.0866919 1.9699682 3.3316852 4.6699018 3.475 7.536z" fill="#000000" data-original="#000000" class=""></path><path id="Shape" d="m34.045 26.8c-.0130789.4724717.3064262.8895803.766 1 .5896298.14025 1.1939293.2094087 1.8.206 5.74-.011 10.4-6.067 10.391-13.5.01-6.589-3.608-12.182-8.6-13.3-.5912234-.13495999-1.1955716-.20404752-1.802-.206-3.36.011-6.519 2.12-8.45 5.644-.1808712.31408344-.1776383.70144856.0084499 1.01246941.1860883.31102085.5258994.49700638.8881758.48611673.3622765-.01088965.6903031-.21694968.8573743-.53858614 1.6-2.917 4.042-4.6 6.7-4.6.16 0 .322.007.486.021-.2021515.94816886-.645427 1.82817572-1.287 2.555-1.1548196 1.31243412-1.7828505 3.00594464-1.763 4.754-.0191841 1.7528009.6113539 3.4506224 1.77 4.766.8909333.9736435 1.378829 2.2493211 1.365 3.569.0185816 1.3147155-.4686521 2.5863203-1.361 3.552-1.1135158 1.2685621-1.7404241 2.8912943-1.769 4.579zm3.367-3.376c2.3526874-2.7387833 2.3526874-6.7852167 0-9.524-.8915799-.972916-1.3799041-2.2484217-1.366-3.568-.0187215-1.3149257.4689336-2.58669568 1.362-3.552.8043684-.94307216 1.3644811-2.0694789 1.631-3.28 3.472 1.454 5.969 5.941 5.961 11 .008 6.332-3.757 11.49-8.393 11.5-.165 0-.325-.006-.482-.019.2012896-.9496618.6446282-1.831172 1.287-2.559z" fill="#000000" data-original="#000000" class=""></path><path id="Shape" d="m5 14c0 .5522847.44771525 1 1 1h3c.55228475 0 1-.4477153 1-1s-.44771525-1-1-1h-3c-.55228475 0-1 .4477153-1 1z" fill="#000000" data-original="#000000" class=""></path><path id="Shape" d="m50 14c0 .5522847.4477153 1 1 1h3c.5522847 0 1-.4477153 1-1s-.4477153-1-1-1h-3c-.5522847 0-1 .4477153-1 1z" fill="#000000" data-original="#000000" class=""></path><path id="Shape" d="m11.313 23.634-2.6 1.5c-.31195078.1773616-.50495322.5082732-.5057421.8671183-.00078889.3588451.19075673.6906021.50192468.8693336.31116795.1787314.694247.1770325 1.00381742-.0044519l2.6-1.5c.3119508-.1773616.5049532-.5082732.5057421-.8671183s-.1907567-.6906021-.5019247-.8693336c-.3111679-.1787314-.694247-.1770325-1.0038174.0044519z" fill="#000000" data-original="#000000" class=""></path><path id="Shape" d="m50.285 1.134-2.6 1.5c-.3119508.17736158-.5049532.50827321-.5057421.8671183s.1907567.69060211.5019247.86933356c.3111679.17873145.694247.17703252 1.0038174-.00445186l2.6-1.5c.3119508-.17736158.5049532-.50827321.5057421-.8671183s-.1907567-.69060211-.5019247-.86933356c-.3111679-.17873145-.694247-.17703252-1.0038174.00445186z" fill="#000000" data-original="#000000" class=""></path><path id="Shape" d="m47.687 25.366 2.6 1.5c.1518701.0881308.3244113.1343718.5.134.4525881-.0000199.8487411-.3040116.9658809-.7411777.1171399-.4371661-.0739396-.8985084-.4658809-1.1248223l-2.6-1.5c-.3095704-.1814844-.6926495-.1831833-1.0038174-.0044519-.311168.1787315-.5027136.5104885-.5019247.8693336s.1937913.6897567.5057421.8671183z" fill="#000000" data-original="#000000" class=""></path><path id="Shape" d="m12.313 2.634-2.6-1.5c-.47785996-.27169029-1.08542045-.10674157-1.36027453.3693057-.27485408.47604726-.11393908 1.08468853.36027453 1.3626943l2.6 1.5c.3095704.18148438.6926495.18318331 1.0038174.00445186.311168-.17873145.5027136-.51048847.5019247-.86933356s-.1937913-.68975672-.5057421-.8671183z" fill="#000000" data-original="#000000" class=""></path></g></g></g></g></svg>